<svg width="213" height="369" viewBox="0 0 213 369" fill="none" xmlns="http://www.w3.org/2000/svg">
    <path
        d="M386 189.914C386 188.697 386 187.359 385.878 186.142C385.147 162.418 380.026 139.302 370.76 117.525C361.006 94.531 347.107 73.9702 329.429 56.3292C311.75 38.6883 291.024 24.6972 268.103 15.086C244.328 4.98804 218.969 -7.72134e-05 193 -6.80562e-05C166.909 -5.88559e-05 141.671 5.10974 117.897 15.086C94.8541 24.8189 74.2495 38.6884 56.5711 56.3293C38.8926 73.9703 24.9937 94.6528 15.2401 117.525C6.70565 137.721 1.70692 159.012 0.365796 181.033L0.243875 181.033L0.121958 186.264C3.79198e-05 188.332 3.78921e-05 190.522 3.83034e-05 192.59C3.84002e-05 193.077 3.8497e-05 193.564 3.85938e-05 194.05L3.88358e-05 195.267L4.23927e-05 213.151L4.34573e-05 218.504L5.36454 218.504L16.5812 218.504C19.8731 218.504 23.043 218.018 25.9691 217.166C30.4801 215.828 34.5035 213.395 38.283 209.866C41.3311 206.947 43.7695 203.783 45.7202 201.228C50.1093 195.51 50.7189 195.267 51.9381 195.267C53.1573 195.267 53.8889 195.51 58.1561 201.228C60.7164 204.635 63.8863 208.771 68.3974 212.3C73.8838 216.436 80.2237 218.626 87.1731 218.626C94.1226 218.626 100.462 216.558 105.949 212.3C110.46 208.893 113.63 204.635 116.19 201.228C120.579 195.51 121.189 195.267 122.408 195.267C123.627 195.267 124.359 195.51 128.626 201.228C131.186 204.635 134.356 208.771 138.867 212.3C144.354 216.436 150.694 218.626 157.643 218.626C164.593 218.626 170.932 216.558 176.419 212.3C177.15 211.691 177.882 211.083 178.613 210.475L178.613 265.587L178.613 266.317C178.37 286.027 170.689 304.519 156.668 318.51C142.525 332.623 123.627 340.409 103.632 340.409C83.6375 340.409 64.7398 332.623 50.597 318.51L46.8175 314.739L43.038 318.51L30.3582 331.163L26.5787 334.935L30.3582 338.706C49.9874 358.294 75.9565 369 103.632 369C131.308 369 157.399 358.294 176.907 338.706C196.536 319.119 207.265 293.205 207.265 265.587L207.265 260.234L207.265 171.908L207.265 166.555L201.9 166.555L193 166.555C189.22 166.555 185.563 167.163 182.149 168.38C173.005 171.665 167.762 178.721 163.861 183.831C159.472 189.549 158.862 189.792 157.643 189.792C156.424 189.792 155.692 189.549 151.425 183.831C148.865 180.424 145.695 176.288 141.184 172.76C135.697 168.623 129.358 166.433 122.408 166.433C115.459 166.433 109.119 168.501 103.632 172.76C99.1213 176.166 95.9514 180.424 93.3911 183.831C89.0019 189.549 88.3923 189.792 87.1731 189.792C85.9539 189.792 85.2224 189.549 80.9552 183.831C78.3948 180.424 75.2249 176.288 70.7139 172.76C65.2274 168.623 58.8876 166.433 51.9381 166.433C44.9887 166.433 38.6488 168.501 33.1624 172.76C31.8213 173.733 30.602 174.828 29.5048 175.923C31.0897 159.62 35.235 143.682 41.5749 128.475C49.8655 108.887 61.6917 91.3679 76.8099 76.2818C91.928 61.1958 109.485 49.3946 129.114 41.1216C149.352 32.6053 170.932 28.2254 193.122 28.2254C215.311 28.2254 236.891 32.6052 257.13 41.1216C276.759 49.3945 294.316 61.1957 309.434 76.2818C324.552 91.3678 336.378 108.887 344.669 128.475C351.131 143.682 355.154 159.62 356.739 175.923C355.642 174.828 354.423 173.733 353.081 172.759C347.595 168.623 341.255 166.433 334.306 166.433C327.356 166.433 321.016 168.501 315.53 172.759C311.019 176.166 307.849 180.424 305.289 183.831C300.9 189.549 300.29 189.792 299.071 189.792C297.852 189.792 297.12 189.549 292.853 183.831C290.292 180.424 287.123 176.288 282.611 172.759C277.125 168.623 270.785 166.433 263.836 166.433L237.623 166.433L232.258 166.433L232.258 171.786L232.258 189.67L232.258 195.024L237.623 195.024L263.47 195.024C264.689 195.024 265.421 195.267 269.688 200.985C272.248 204.392 275.418 208.528 279.929 212.056C285.416 216.193 291.756 218.383 298.705 218.383C305.654 218.383 311.994 216.314 317.481 212.056C321.992 208.65 325.162 204.392 327.722 200.985C332.111 195.267 332.721 195.024 333.94 195.024C335.159 195.024 335.891 195.267 340.158 200.985C344.303 206.46 349.912 213.881 359.909 216.923C360.275 217.044 360.641 217.166 361.006 217.288C363.567 218.018 366.371 218.383 369.297 218.383L380.514 218.383L385.878 218.383L385.878 213.029L385.878 195.145L385.878 192.469L386 189.914Z"
        fill="white" fill-opacity="0.1" />
</svg>