<svg width="25" height="26" viewBox="0 0 25 26" fill="none" xmlns="http://www.w3.org/2000/svg">
    <path
        d="M1 1.5H5.18182L7.98364 16.1652C8.07924 16.6695 8.34109 17.1224 8.72334 17.4448C9.1056 17.7672 9.58391 17.9384 10.0745 17.9286H20.2364C20.727 17.9384 21.2053 17.7672 21.5876 17.4448C21.9698 17.1224 22.2317 16.6695 22.3273 16.1652L24 6.97619H6.22727M21.9091 23.4048C21.9091 24.0096 21.441 24.5 20.8636 24.5C20.2862 24.5 19.8182 24.0096 19.8182 23.4048C19.8182 22.7999 20.2862 22.3095 20.8636 22.3095C21.441 22.3095 21.9091 22.7999 21.9091 23.4048ZM10.4091 23.4048C10.4091 24.0096 9.94102 24.5 9.36364 24.5C8.78625 24.5 8.31818 24.0096 8.31818 23.4048C8.31818 22.7999 8.78625 22.3095 9.36364 22.3095C9.94102 22.3095 10.4091 22.7999 10.4091 23.4048Z"
        stroke="white" stroke-width="2" stroke-linecap="round" stroke-linejoin="round" />
</svg>