<svg xmlns="http://www.w3.org/2000/svg" version="1.1" xmlns:xlink="http://www.w3.org/1999/xlink" xmlns:svgjs="http://svgjs.dev/svgjs" width="1000" height="1000"><g clip-path="url(#SvgjsClipPath1054)"><rect width="1000" height="1000" fill="#000000"></rect><g transform="matrix(6.172839506172839,0,0,6.172839506172839,18.518518518518533,0)"><svg xmlns="http://www.w3.org/2000/svg" version="1.1" xmlns:xlink="http://www.w3.org/1999/xlink" xmlns:svgjs="http://svgjs.dev/svgjs" width="156" height="162"><svg width="156" height="162" viewBox="0 0 156 162" fill="none" xmlns="http://www.w3.org/2000/svg">
<rect width="156" height="162" rx="40" fill="black"></rect>
<path d="M37.28 79.1894C38.13 76.9194 39.35 74.9794 40.92 73.3894C42.5 71.7894 44.38 70.5594 46.59 69.6794C48.79 68.7994 51.27 68.3594 54.01 68.3594C56.75 68.3594 59.24 68.7994 61.47 69.6794C63.7 70.5594 65.6 71.7994 67.17 73.3894C68.75 74.9894 69.96 76.9194 70.82 79.1894C71.67 81.4594 72.1 83.9894 72.1 86.7794C72.1 89.5694 71.67 92.0894 70.82 94.3394C69.96 96.5894 68.75 98.5094 67.17 100.109C65.59 101.709 63.69 102.929 61.47 103.789C59.24 104.639 56.76 105.069 54.01 105.069C51.26 105.069 48.79 104.639 46.59 103.789C44.38 102.939 42.5 101.709 40.92 100.109C39.34 98.5094 38.13 96.5894 37.28 94.3394C36.42 92.0894 36 89.5694 36 86.7794C36 83.9894 36.43 81.4594 37.28 79.1894ZM45.98 90.8694C46.25 92.1994 46.71 93.3894 47.36 94.4494C48.01 95.5094 48.88 96.3494 49.96 96.9794C51.04 97.6094 52.39 97.9194 54.01 97.9194C55.63 97.9194 56.99 97.6094 58.09 96.9794C59.19 96.3494 60.07 95.5094 60.72 94.4494C61.37 93.3894 61.83 92.1994 62.1 90.8694C62.37 89.5394 62.5 88.1794 62.5 86.7894C62.5 85.3994 62.37 84.0194 62.1 82.6694C61.83 81.3194 61.37 80.1294 60.72 79.0894C60.07 78.0594 59.19 77.2094 58.09 76.5594C56.99 75.9094 55.63 75.5794 54.01 75.5794C52.39 75.5794 51.04 75.9094 49.96 76.5594C48.88 77.2094 48.01 78.0594 47.36 79.0894C46.71 80.1294 46.25 81.3194 45.98 82.6694C45.71 84.0194 45.57 85.3894 45.57 86.7894C45.57 88.1894 45.7 89.5494 45.98 90.8694Z" fill="white"></path>
<path d="M98.31 99.74C97.19 101.63 95.71 102.99 93.89 103.82C92.07 104.65 90.01 105.07 87.71 105.07C85.1 105.07 82.8 104.56 80.83 103.55C78.85 102.54 77.22 101.17 75.94 99.43C74.66 97.7 73.69 95.71 73.04 93.46C72.39 91.21 72.06 88.87 72.06 86.44C72.06 84.01 72.39 81.84 73.04 79.66C73.69 77.48 74.66 75.55 75.94 73.89C77.22 72.23 78.83 70.89 80.77 69.87C82.7 68.86 84.95 68.35 87.52 68.35C89.59 68.35 91.56 68.79 93.43 69.67C95.3 70.55 96.77 71.84 97.85 73.55H97.99V56H107.57V104.19H98.46V99.74H98.31ZM97.91 82.5C97.64 81.17 97.18 80 96.53 78.99C95.88 77.98 95.03 77.16 94 76.53C92.96 75.9 91.66 75.58 90.08 75.58C88.5 75.58 87.18 75.9 86.1 76.53C85.02 77.16 84.15 77.99 83.5 79.03C82.85 80.07 82.38 81.25 82.08 82.57C81.79 83.9 81.64 85.28 81.64 86.72C81.64 88.07 81.8 89.42 82.11 90.77C82.42 92.12 82.93 93.32 83.63 94.38C84.33 95.44 85.21 96.29 86.26 96.94C87.32 97.59 88.59 97.92 90.07 97.92C91.64 97.92 92.96 97.61 94.02 96.98C95.08 96.35 95.92 95.51 96.55 94.45C97.18 93.39 97.63 92.19 97.9 90.84C98.17 89.49 98.3 88.1 98.3 86.65C98.3 85.2 98.17 83.83 97.9 82.5H97.91Z" fill="white"></path>
<path d="M115.02 103.199C117.455 103.199 119.43 101.224 119.43 98.7889C119.43 96.3533 117.455 94.3789 115.02 94.3789C112.584 94.3789 110.61 96.3533 110.61 98.7889C110.61 101.224 112.584 103.199 115.02 103.199Z" fill="white"></path>
</svg></svg></g></g><defs><clipPath id="SvgjsClipPath1054"><rect width="1000" height="1000" x="0" y="0" rx="500" ry="500"></rect></clipPath></defs></svg>