<svg width="108" height="40" viewBox="0 0 108 40" fill="none" xmlns="http://www.w3.org/2000/svg">
<path d="M9.856 6.008C12.384 6.008 14.432 6.808 15.968 8.408C17.504 10.008 18.304 12.12 18.304 14.744C18.304 17.4 17.504 19.512 15.968 21.112C14.432 22.712 12.352 23.512 9.792 23.512C7.2 23.512 5.12 22.712 3.584 21.112C2.016 19.512 1.248 17.4 1.248 14.744C1.248 12.12 2.016 10.008 3.616 8.408C5.184 6.808 7.264 6.008 9.856 6.008ZM9.728 9.464C8.512 9.464 7.552 9.944 6.848 10.904C6.144 11.832 5.792 13.112 5.792 14.776C5.792 16.44 6.144 17.752 6.848 18.712C7.552 19.64 8.512 20.12 9.792 20.12C11.04 20.12 12 19.64 12.704 18.68C13.408 17.72 13.76 16.408 13.76 14.712C13.76 13.08 13.376 11.8 12.672 10.872C11.968 9.944 10.976 9.464 9.728 9.464ZM35.4665 23H31.1465V20.888C30.0585 22.616 28.3945 23.448 26.1545 23.448C23.8825 23.448 22.0585 22.68 20.7145 21.08C19.3705 19.48 18.6985 17.368 18.6985 14.68C18.6985 12.088 19.3385 10.008 20.6505 8.44C21.9625 6.84 23.7225 6.072 25.9305 6.072C26.9545 6.072 27.9145 6.264 28.8105 6.712C29.7065 7.128 30.4425 7.736 30.9545 8.536V0.216H35.4665V23ZM31.0825 14.712C31.0825 13.112 30.7625 11.896 30.0585 11C29.3545 10.104 28.3945 9.656 27.1785 9.656C25.9305 9.656 24.9705 10.104 24.2985 11C23.5945 11.896 23.2745 13.112 23.2745 14.712C23.2745 16.312 23.5945 17.56 24.2985 18.456C25.0025 19.352 25.9625 19.832 27.1785 19.832C28.4265 19.832 29.3865 19.384 30.0585 18.488C30.7625 17.592 31.0825 16.344 31.0825 14.712ZM41.685 0.216V4.056H37.141V0.216H41.685ZM41.685 6.488V23H37.141V6.488H41.685ZM57.295 11.288L53.039 11.32C52.911 10.488 52.623 9.88 52.111 9.56C51.599 9.208 50.863 9.048 49.903 9.048C49.103 9.048 48.463 9.176 48.015 9.464C47.567 9.752 47.343 10.168 47.343 10.68C47.343 11.256 47.599 11.672 48.111 11.928C48.623 12.152 49.551 12.408 50.863 12.696C51.119 12.728 51.279 12.76 51.375 12.792C52.143 12.92 52.783 13.048 53.231 13.176C53.679 13.304 54.255 13.496 54.895 13.752C55.567 14.008 56.079 14.328 56.431 14.648C56.815 14.968 57.135 15.416 57.391 15.96C57.679 16.536 57.807 17.176 57.807 17.88C57.807 19.608 57.135 20.984 55.791 21.976C54.447 23 52.623 23.48 50.255 23.48C48.015 23.48 46.191 23 44.719 22.04C43.279 21.08 42.543 19.608 42.511 17.624H46.831C46.991 19.48 48.175 20.376 50.351 20.376C51.279 20.376 52.015 20.216 52.559 19.832C53.103 19.448 53.359 18.968 53.359 18.328C53.359 17.72 53.135 17.272 52.623 17.016C52.143 16.76 51.247 16.504 49.903 16.184C49.807 16.184 49.711 16.152 49.647 16.12C49.519 16.088 49.167 16.024 48.655 15.896C48.143 15.8 47.791 15.736 47.599 15.672C47.407 15.608 47.055 15.512 46.607 15.384C46.159 15.256 45.807 15.16 45.583 15.032C45.391 14.904 45.103 14.776 44.751 14.584C44.399 14.392 44.143 14.2 43.951 13.976C43.791 13.784 43.599 13.528 43.407 13.24C43.215 12.952 43.055 12.632 42.991 12.248C42.927 11.896 42.895 11.512 42.895 11.064C42.895 9.464 43.503 8.216 44.783 7.32C46.031 6.456 47.823 6.008 50.127 6.008C52.175 6.008 53.871 6.456 55.215 7.288C56.527 8.152 57.231 9.496 57.295 11.288ZM73.6185 6.488L67.5065 22.968C67.2185 23.8 66.9945 24.376 66.8665 24.696C66.7385 25.016 66.5145 25.496 66.2265 26.104C65.9385 26.68 65.6825 27.096 65.4265 27.352C65.1705 27.576 64.8505 27.832 64.4345 28.152C64.0185 28.44 63.5385 28.632 63.0265 28.728C62.5145 28.856 61.9065 28.888 61.2345 28.888C60.6585 28.888 59.6665 28.888 58.1945 28.856V25.112H60.4025C61.1385 25.112 61.7145 24.92 62.0985 24.536C62.4825 24.152 62.7065 23.608 62.7065 22.904C62.7065 22.744 62.6425 22.52 62.5785 22.264L56.5945 6.488H61.4905L65.2665 17.72L68.9145 6.488H73.6185ZM76.7823 18.008V23H71.7263V18.008H76.7823Z" fill="white"/>
<path d="M19 36.9668C22.0557 34.2561 25.4829 32.1484 29.0623 30.1671C38.8666 24.7403 49.3109 20.408 60.0201 17.1167C61.54 16.6496 63.4682 15.3879 64.7292 16.3565C65.501 16.9493 64.5156 18.3402 64.0535 19.1967C61.0027 24.8511 56.0785 29.6065 50.8552 33.2502C47.7268 35.4325 44.1678 37.5835 40.3811 38.4661C39.2499 38.7298 34.5755 39.615 37.3191 36.2066C40.5067 32.2466 48.2542 28.0532 52.0061 26.0281C58.3551 22.6013 64.1263 19.984 70.8743 17.6657C72.4505 17.1242 74.0563 16.6344 75.6996 16.3565C76.2119 16.2698 76.8994 16.1973 77.2411 16.5887C77.4959 16.8805 77.1193 17.3982 76.861 17.6868C76.1629 18.4669 75.3037 19.0926 74.4537 19.7035C68.7452 23.8058 62.1239 26.1296 55.4588 28.1504C54.2087 28.5294 48.1853 30.0458 54.7725 28.8578C66.4796 26.7465 78.1108 24.2119 89.7636 21.8258C91.4975 21.4708 96.6831 20.3533 94.9795 20.8333C93.8868 21.1412 88.0639 22.406 87.8208 22.4593C86.9971 22.6399 79.4971 24.2522 78.297 24.571C77.644 24.7445 76.881 24.787 76.3859 25.2468C76.1802 25.4378 76.8356 25.6367 77.1144 25.6691C79.4361 25.9391 85.1945 25.6517 86.955 25.5424C91.5487 25.2574 96.1679 24.7609 100.745 24.2754C102.75 24.0626 104.748 23.73 106.763 23.6419C107.105 23.6269 106.12 23.8814 105.792 23.9797C104.64 24.3246 104.059 24.8817 103.194 24.2332" stroke="#5A5A5A" stroke-linecap="round"/>
</svg>
