<svg width="120" height="169" viewBox="0 0 120 169" fill="none" xmlns="http://www.w3.org/2000/svg">
    <g clip-path="url(#clip0_1241_557)">
        <path
            d="M35.2533 153.53V157.009H20.2188V135.828H35.0122V139.313H24.2989V144.667H34.3479V147.993H24.2989V153.53H35.2533Z"
            fill="#0C0C0C" />
        <path
            d="M16.7319 135.828V149.265C16.7319 150.939 16.382 152.378 15.6894 153.589C14.992 154.804 14.0228 155.726 12.7817 156.359C11.5407 156.993 10.0727 157.312 8.38012 157.312C7.29035 157.312 6.25495 157.175 5.27865 156.903C4.29762 156.631 3.42533 156.21 2.65942 155.645C1.8935 155.08 1.30962 154.373 0.829738 153.56C0.25294 152.584 0.033095 151.085 0 149.958H4.34962C4.44655 151.21 4.90278 152.106 5.22901 152.513C5.59541 152.969 6.04929 153.303 6.60717 153.513C7.1627 153.723 7.78205 153.832 8.46758 153.832C9.73938 153.832 10.7133 153.416 11.3894 152.591C12.0631 151.761 12.4012 150.615 12.4012 149.144V139.4H1.42308V135.828H16.7319Z"
            fill="#0C0C0C" />
        <path
            d="M82.0879 135.828V157.009H78.0645V143.185L73.4808 151.927H70.8805L66.2968 143.185V157.009H62.2734V135.828H66.0179L72.1665 147.296L78.3789 135.828H82.0879Z"
            fill="#0C0C0C" />
        <path
            d="M100.756 153.53V157.009H85.7188V135.828H100.515V139.313H89.8012V144.667H99.8479V147.993H89.8012V153.53H100.756Z"
            fill="#0C0C0C" />
        <path
            d="M120.002 150.986C120.002 152.322 119.645 153.454 118.929 154.39C118.213 155.329 117.208 156.052 115.922 156.553C114.631 157.059 113.128 157.312 111.412 157.312C109.537 157.312 107.967 157.031 106.708 156.48C105.448 155.924 104.485 155.199 103.833 154.3C103.19 153.416 102.684 151.884 102.63 150.896C102.625 150.877 102.625 150.858 102.625 150.837H106.788C106.793 150.856 106.804 150.88 106.812 150.908C106.97 151.336 107.431 152.201 107.75 152.546C108.093 152.92 108.563 153.227 109.159 153.468C109.75 153.709 110.506 153.83 111.412 153.83C112.863 153.83 113.948 153.589 114.664 153.107C115.381 152.62 115.738 151.967 115.738 151.137C115.738 150.554 115.546 150.083 115.161 149.733C114.78 149.379 114.187 149.057 113.39 148.764C112.594 148.473 111.542 148.164 110.23 147.842C108.717 147.476 107.447 147.041 106.431 146.523C105.412 146.01 104.644 145.36 104.131 144.573C103.618 143.785 103.355 142.786 103.355 141.575C103.355 140.365 103.675 139.365 104.308 138.459C104.946 137.552 105.852 136.838 107.031 136.311C108.213 135.786 109.62 135.523 111.253 135.523C112.565 135.523 113.724 135.698 114.733 136.053C115.745 136.408 116.582 136.871 117.246 137.445C117.91 138.017 118.421 138.632 118.771 139.289C119.085 139.873 119.404 141.067 119.482 141.76C119.487 141.79 119.489 141.819 119.494 141.845H115.182C115.038 141.214 114.471 140.098 113.825 139.665C113.161 139.221 112.303 139.001 111.253 139.001C110.204 139.001 109.289 139.204 108.622 139.608C107.953 140.01 107.622 140.637 107.622 141.483C107.622 142.048 107.79 142.514 108.121 142.887C108.457 143.261 108.989 143.592 109.724 143.871C110.464 144.154 111.435 144.454 112.646 144.778C114.357 145.164 115.764 145.608 116.851 146.114C117.941 146.615 118.735 147.258 119.241 148.034C119.747 148.811 119.995 149.797 119.995 150.984L120.002 150.986Z"
            fill="#0C0C0C" />
        <path
            d="M58.2519 135.828V157.009H54.2285V143.185L49.6449 151.927H47.0446L42.4609 143.185V157.009H38.4375V135.828H42.182L48.3282 147.296L54.5429 135.828H58.2519Z"
            fill="#0C0C0C" />
        <path
            d="M3.33118 169C2.65982 169 2.13976 168.821 1.77808 168.461C1.41403 168.102 1.23438 167.544 1.23438 166.79C1.23438 166.289 1.32184 165.873 1.49677 165.549C1.6717 165.223 1.92464 164.979 2.25559 164.821C2.58654 164.66 2.98604 164.582 3.45174 164.582C3.73068 164.582 3.99071 164.613 4.23656 164.677C4.48241 164.738 4.69753 164.835 4.88664 164.963C5.07576 165.09 5.22232 165.251 5.3287 165.445C5.43507 165.639 5.48708 165.868 5.48708 166.133H4.54624C4.54624 166.005 4.51787 165.889 4.46113 165.79C4.4044 165.691 4.32639 165.608 4.22711 165.542C4.12782 165.476 4.01435 165.426 3.88434 165.393C3.75668 165.36 3.61958 165.343 3.48011 165.343C3.26499 165.343 3.07587 165.372 2.91276 165.428C2.74965 165.485 2.61727 165.57 2.5109 165.684C2.40452 165.797 2.32415 165.939 2.27214 166.109C2.21777 166.279 2.19177 166.476 2.19177 166.7V166.887C2.19177 167.199 2.23668 167.454 2.32887 167.653C2.42107 167.851 2.55817 168 2.7402 168.097C2.92222 168.194 3.14916 168.244 3.41864 168.244C3.64322 168.244 3.84179 168.211 4.01435 168.14C4.18692 168.071 4.32166 167.972 4.41858 167.844C4.51551 167.717 4.56515 167.558 4.56515 167.372V167.329H3.28863V166.62H5.48708V168.929H4.87719L4.79681 168.468C4.67152 168.589 4.53914 168.688 4.39494 168.766C4.25075 168.844 4.09236 168.903 3.91743 168.944C3.7425 168.984 3.54866 169.003 3.33118 169.003V169Z"
            fill="#FF502F" />
        <path
            d="M23.8516 168.924L25.4945 164.652H26.641L28.2839 168.924H27.2816L26.9767 168.082H25.1163L24.8113 168.924H23.8516ZM25.3834 167.338H26.7095L26.329 166.286C26.3124 166.241 26.2935 166.184 26.2699 166.12C26.2462 166.057 26.2226 165.983 26.1989 165.905C26.1729 165.827 26.1493 165.749 26.128 165.671C26.1044 165.596 26.0831 165.525 26.0618 165.463H26.024C26.0027 165.541 25.9767 165.633 25.9436 165.74C25.9105 165.846 25.8774 165.948 25.8444 166.045C25.8113 166.142 25.7853 166.222 25.764 166.283L25.3834 167.335V167.338Z"
            fill="#FF502F" />
        <path
            d="M46.6875 168.924V164.652H49.0278C49.3422 164.652 49.6069 164.709 49.815 164.82C50.0254 164.931 50.1814 165.09 50.2854 165.291C50.3894 165.492 50.4414 165.723 50.4414 165.986C50.4414 166.265 50.38 166.51 50.2547 166.723C50.1294 166.938 49.9497 167.099 49.7133 167.213L50.5856 168.924H49.5573L48.8032 167.369H47.6142V168.924H46.6875ZM47.6142 166.633H48.9025C49.0892 166.633 49.2334 166.577 49.3375 166.463C49.4415 166.35 49.4935 166.194 49.4935 166C49.4935 165.875 49.4698 165.768 49.4249 165.678C49.38 165.588 49.3138 165.522 49.2264 165.475C49.1389 165.43 49.0301 165.406 48.9025 165.406H47.6142V166.633Z"
            fill="#FF502F" />
        <path
            d="M69.0703 168.924V164.652H70.8125C71.2569 164.652 71.6352 164.728 71.9448 164.882C72.2569 165.035 72.4956 165.269 72.6635 165.581C72.8313 165.896 72.9164 166.298 72.9164 166.787C72.9164 167.276 72.8313 167.673 72.6635 167.988C72.4956 168.305 72.2545 168.539 71.9448 168.692C71.6328 168.846 71.2569 168.922 70.8125 168.922H69.0703V168.924ZM69.997 168.158H70.8054C70.9922 168.158 71.1577 168.132 71.3042 168.078C71.4484 168.023 71.569 167.943 71.6659 167.839C71.7628 167.735 71.8337 167.6 71.8834 167.439C71.933 167.279 71.959 167.094 71.959 166.882V166.695C71.959 166.482 71.933 166.298 71.8834 166.137C71.8337 165.976 71.7605 165.844 71.6659 165.74C71.5713 165.633 71.4508 165.553 71.3042 165.496C71.16 165.44 70.9922 165.411 70.8054 165.411H69.997V168.158Z"
            fill="#FF502F" />
        <path
            d="M91.5234 168.924V164.652H94.9346V165.411H92.4572V166.364H94.6485V167.118H92.4572V168.158H94.9724V168.924H91.5234Z"
            fill="#FF502F" />
        <path
            d="M113.617 168.924V164.652H114.471L116.189 166.955C116.215 166.983 116.246 167.023 116.284 167.075C116.322 167.127 116.357 167.177 116.39 167.229C116.423 167.279 116.447 167.319 116.459 167.347H116.489V164.652H117.366V168.924H116.513L114.757 166.565C114.714 166.508 114.671 166.442 114.627 166.371C114.582 166.3 114.549 166.246 114.527 166.21H114.497V168.924H113.62H113.617Z"
            fill="#FF502F" />
        <path
            d="M119.995 59.1843C119.991 58.7942 119.981 58.4065 119.969 58.0259C119.733 50.6314 118.156 43.4355 115.284 36.6438C112.26 29.4999 107.937 23.0818 102.427 17.5737C96.9163 12.0633 90.5006 7.73963 83.3568 4.71611C75.9577 1.58622 68.1 0 60.0012 0C51.9024 0 44.0423 1.58622 36.6432 4.71848C29.4994 7.73963 23.0814 12.0657 17.5734 17.5761C12.0655 23.0865 7.73949 29.5023 4.71603 36.6462C2.05425 42.9391 0.50588 49.5842 0.104013 56.4184H0.0803735L0.030731 58.033C0.0094557 58.6855 0 59.3474 0 60.0022C0 60.1582 0 60.3142 0.00236393 60.4679V60.8509V66.4062V68.0728H5.15336C6.16985 68.0728 7.14851 67.9286 8.06099 67.6473C9.4557 67.2123 10.7039 66.4677 11.8764 65.3661C12.8338 64.4654 13.5831 63.4772 14.1836 62.6806C15.5357 60.8934 15.7556 60.8178 16.122 60.8178C16.4884 60.8178 16.7106 60.8934 18.0604 62.6806C18.8547 63.7325 19.8452 65.0422 21.247 66.1131C22.949 67.4132 24.9134 68.0728 27.0906 68.0728C29.2678 68.0728 31.2346 67.4132 32.9342 66.1131C34.336 65.0422 35.3265 63.7326 36.1208 62.6782C37.473 60.8911 37.6928 60.8154 38.0592 60.8154C38.4256 60.8154 38.6478 60.8911 39.9976 62.6782C40.7919 63.7302 41.7824 65.0398 43.1842 66.1107C44.8862 67.4109 46.8507 68.0704 49.0278 68.0704C51.205 68.0704 53.1694 67.4109 54.8715 66.1107C55.1102 65.9287 55.3395 65.7372 55.5546 65.5434V82.9492C55.4955 89.0956 53.0749 94.8636 48.7229 99.2157C44.3165 103.622 38.4564 106.05 32.2227 106.05C25.989 106.05 20.1288 103.622 15.7225 99.2157L14.5429 98.0361L13.3633 99.2157L9.43443 103.145L8.25483 104.324L9.43443 105.504C15.5192 111.589 23.6109 114.941 32.2203 114.941C40.8297 114.941 48.9191 111.589 55.0038 105.504C61.0909 99.4166 64.443 91.3248 64.443 82.7176V81.051V51.9269H59.9988C58.8121 51.9269 57.6845 52.1207 56.6444 52.5061C53.8219 53.5438 52.1719 55.7258 50.9663 57.3191C49.6141 59.1086 49.3942 59.1819 49.0278 59.1819C48.6614 59.1819 48.4392 59.1063 47.0894 57.3191C46.2951 56.2671 45.3046 54.9575 43.9028 53.8866C42.2008 52.5864 40.2364 51.9269 38.0592 51.9269C35.882 51.9269 33.92 52.5864 32.2179 53.8843C30.8161 54.9551 29.8257 56.2624 29.0314 57.3144L29.029 57.3191C27.6792 59.1063 27.4594 59.1819 27.0906 59.1819C26.7218 59.1819 26.502 59.1063 25.1522 57.3191C24.3579 56.2671 23.3674 54.9575 21.9656 53.8866C20.2636 52.5864 18.2992 51.9269 16.122 51.9269C13.9448 51.9269 11.9804 52.5864 10.2784 53.8843C9.86703 54.1987 9.4888 54.5344 9.14367 54.8795C9.64718 49.7851 10.9072 44.8326 12.907 40.1047C15.4814 34.0198 19.1691 28.552 23.8638 23.8548C28.5586 19.16 34.0264 15.4745 40.1111 12.9002C46.411 10.236 53.1056 8.88615 60.0059 8.88615C66.9062 8.88615 73.5985 10.236 79.8983 12.9002C85.9831 15.4745 91.4509 19.16 96.1456 23.8548C100.84 28.5496 104.526 34.0175 107.102 40.1047C109.102 44.835 110.362 49.7875 110.866 54.8842C110.518 54.5391 110.14 54.201 109.726 53.8866C108.024 52.5864 106.06 51.9269 103.883 51.9269C101.706 51.9269 99.7411 52.5864 98.0391 53.8866C96.6373 54.9575 95.6468 56.2671 94.8525 57.3191C93.5004 59.1086 93.2805 59.1843 92.9141 59.1843C92.5477 59.1843 92.3255 59.1086 90.9757 57.3215C90.1791 56.2695 89.1909 54.9599 87.7891 53.889C86.0871 52.5888 84.1227 51.9293 81.9455 51.9293H72.2298V60.8178H81.9455C82.3143 60.8178 82.5341 60.8934 83.8839 62.6806C84.6782 63.7325 85.6687 65.0422 87.0705 66.1131C88.7725 67.4132 90.7369 68.0728 92.9141 68.0728C95.0913 68.0728 97.0557 67.4132 98.7577 66.1131C100.16 65.0422 101.15 63.7326 101.944 62.6782C103.296 60.8911 103.516 60.8154 103.883 60.8154C104.249 60.8154 104.471 60.8911 105.821 62.6782C107.102 64.3708 108.852 66.6828 111.946 67.6449C112.069 67.6827 112.18 67.7158 112.286 67.7442C113.095 67.9617 113.96 68.0728 114.854 68.0728H120.007V59.1843H120.002H119.995Z"
            fill="#FF502F" />
        <path
            d="M76.9825 81.5823C75.1363 81.5823 73.6328 80.0812 73.6328 78.2325C73.6328 76.3839 75.1339 74.8828 76.9825 74.8828C77.694 74.8828 78.3749 75.1027 78.9469 75.5211L78.4812 76.1594C78.0439 75.8402 77.5238 75.6724 76.9801 75.6724C75.5689 75.6724 74.42 76.8213 74.42 78.2302C74.42 79.6391 75.5689 80.788 76.9801 80.788C78.3063 80.788 79.4008 79.7739 79.5261 78.4784L78.1905 77.878L77.2047 79.6462L76.5003 78.3862V79.4642H75.7107V76.9749H76.6161L77.2023 78.0245L77.8501 76.8615L80.3251 77.9749V78.2302C80.3251 80.0764 78.824 81.5799 76.9754 81.5799L76.9825 81.5823Z"
            fill="#FF502F" />
    </g>
    <defs>
        <clipPath id="clip0_1241_557">
            <rect width="120" height="169" fill="white" />
        </clipPath>
    </defs>
</svg>