<svg width="120" height="33" viewBox="0 0 120 33" fill="none" xmlns="http://www.w3.org/2000/svg">
    <path
        d="M35.2533 17.7479V21.1777H20.2188V0.300781H35.0122V3.73522H24.2989V9.01271H34.3479V12.291H24.2989V17.7479H35.2533Z"
        fill="#0C0C0C" />
    <path
        d="M16.7319 0.300781V13.5446C16.7319 15.1942 16.382 16.6132 15.6894 17.8062C14.992 19.0038 14.0228 19.9125 12.7817 20.537C11.5407 21.1614 10.0727 21.476 8.38012 21.476C7.29035 21.476 6.25495 21.3408 5.27865 21.0729C4.29762 20.8049 3.42533 20.3902 2.65942 19.8333C1.8935 19.2764 1.30962 18.5798 0.829738 17.7782C0.25294 16.8159 0.033095 15.3387 0 14.2273H4.34962C4.44655 15.4622 4.90278 16.3453 5.22901 16.746C5.59541 17.1957 6.04929 17.5243 6.60717 17.7316C7.1627 17.939 7.78205 18.0462 8.46758 18.0462C9.73938 18.0462 10.7133 17.6361 11.3894 16.8229C12.0631 16.0051 12.4012 14.875 12.4012 13.4258V3.82143H1.42308V0.300781H16.7319Z"
        fill="#0C0C0C" />
    <path
        d="M82.0801 0.300781V21.1777H78.0567V7.55179L73.473 16.1682H70.8727L66.289 7.55179V21.1777H62.2656V0.300781H66.0101L72.1587 11.6037L78.3711 0.300781H82.0801Z"
        fill="#0C0C0C" />
    <path
        d="M100.756 17.7479V21.1777H85.7188V0.300781H100.515V3.73522H89.8012V9.01271H99.8479V12.291H89.8012V17.7479H100.756Z"
        fill="#0C0C0C" />
    <path
        d="M120.002 15.2406C120.002 16.5571 119.645 17.6732 118.929 18.5959C118.213 19.5209 117.208 20.2338 115.922 20.7278C114.631 21.2264 113.128 21.4758 111.412 21.4758C109.537 21.4758 107.967 21.1985 106.708 20.6556C105.448 20.108 104.485 19.3927 103.833 18.5073C103.19 17.6359 102.684 16.126 102.63 15.1521C102.625 15.1334 102.625 15.1148 102.625 15.0938H106.788C106.793 15.1125 106.804 15.1358 106.812 15.1637C106.97 15.5855 107.431 16.4382 107.75 16.7784C108.093 17.1466 108.563 17.4495 109.159 17.6871C109.75 17.9248 110.506 18.0436 111.412 18.0436C112.863 18.0436 113.948 17.806 114.664 17.3306C115.381 16.8507 115.738 16.2076 115.738 15.3898C115.738 14.8142 115.546 14.3506 115.161 14.0057C114.78 13.6562 114.187 13.3393 113.39 13.0504C112.594 12.7638 111.542 12.4586 110.23 12.1417C108.717 11.7806 107.447 11.3518 106.431 10.8416C105.412 10.3359 104.644 9.69519 104.131 8.91929C103.618 8.1434 103.355 7.1578 103.355 5.96484C103.355 4.77187 103.675 3.78627 104.308 2.89388C104.946 1.99915 105.852 1.29548 107.031 0.775885C108.213 0.258622 109.62 0 111.253 0C112.565 0 113.724 0.172419 114.733 0.521921C115.745 0.871424 116.582 1.3281 117.246 1.89429C117.91 2.45815 118.421 3.06397 118.771 3.71171C119.085 4.28723 119.404 5.46387 119.482 6.14657C119.487 6.17686 119.489 6.20483 119.494 6.23046H115.182C115.038 5.60835 114.471 4.50857 113.825 4.08218C113.161 3.64414 112.303 3.42744 111.253 3.42744C110.204 3.42744 109.289 3.62783 108.622 4.02626C107.953 4.42236 107.622 5.03982 107.622 5.87396C107.622 6.43083 107.79 6.88985 108.121 7.25799C108.457 7.62613 108.989 7.95234 109.724 8.22729C110.464 8.50689 111.435 8.80279 112.646 9.122C114.357 9.5018 115.764 9.93985 116.851 10.4385C117.941 10.9324 118.735 11.5662 119.241 12.3304C119.747 13.097 119.995 14.0686 119.995 15.2383L120.002 15.2406Z"
        fill="#0C0C0C" />
    <path
        d="M58.2519 0.300781V21.1777H54.2285V7.55179L49.6449 16.1682H47.0446L42.4609 7.55179V21.1777H38.4375V0.300781H42.182L48.3282 11.6037L54.5429 0.300781H58.2519Z"
        fill="#0C0C0C" />
    <path
        d="M3.33118 32.9954C2.65982 32.9954 2.13976 32.8183 1.77808 32.4642C1.41403 32.11 1.23438 31.5601 1.23438 30.8169C1.23438 30.3229 1.32184 29.9128 1.49677 29.5936C1.6717 29.2721 1.92464 29.0321 2.25559 28.8759C2.58654 28.7175 2.98604 28.6406 3.45174 28.6406C3.73068 28.6406 3.99071 28.6709 4.23656 28.7338C4.48241 28.7944 4.69753 28.8899 4.88664 29.0158C5.07576 29.1416 5.22232 29.3 5.3287 29.4911C5.43507 29.6821 5.48708 29.9082 5.48708 30.1691H4.54624C4.54624 30.0433 4.51787 29.9291 4.46113 29.8313C4.4044 29.7334 4.32639 29.6519 4.22711 29.5866C4.12782 29.5214 4.01435 29.4724 3.88434 29.4398C3.75668 29.4072 3.61958 29.3909 3.48011 29.3909C3.26499 29.3909 3.07587 29.4188 2.91276 29.4748C2.74965 29.5307 2.61727 29.6146 2.5109 29.7264C2.40452 29.8382 2.32415 29.978 2.27214 30.1458C2.21777 30.3136 2.19177 30.507 2.19177 30.7283V30.9124C2.19177 31.22 2.23668 31.4716 2.32887 31.6673C2.42107 31.863 2.55817 32.0098 2.7402 32.1054C2.92222 32.2009 3.14916 32.2498 3.41864 32.2498C3.64322 32.2498 3.84179 32.2172 4.01435 32.1473C4.18692 32.0797 4.32166 31.9819 4.41858 31.856C4.51551 31.7302 4.56515 31.5741 4.56515 31.39V31.3481H3.28863V30.6491H5.48708V32.9255H4.87719L4.79681 32.4712C4.67152 32.59 4.53914 32.6879 4.39494 32.7647C4.25075 32.8416 4.09236 32.8999 3.91743 32.9395C3.7425 32.9791 3.54866 32.9977 3.33118 32.9977V32.9954Z"
        fill="#FF502F" />
    <path
        d="M23.8516 32.9213L25.4945 28.7109H26.641L28.2839 32.9213H27.2816L26.9767 32.0918H25.1163L24.8113 32.9213H23.8516ZM25.3834 31.3578H26.7095L26.329 30.321C26.3124 30.2767 26.2935 30.2208 26.2699 30.1579C26.2462 30.095 26.2226 30.0227 26.1989 29.9458C26.1729 29.869 26.1493 29.7921 26.128 29.7152C26.1044 29.6406 26.0831 29.5707 26.0618 29.5101H26.024C26.0027 29.587 25.9767 29.6779 25.9436 29.7827C25.9105 29.8876 25.8774 29.9878 25.8444 30.0833C25.8113 30.1789 25.7853 30.2581 25.764 30.3186L25.3834 31.3555V31.3578Z"
        fill="#FF502F" />
    <path
        d="M46.6875 32.9213V28.7109H49.0278C49.3422 28.7109 49.6069 28.7668 49.815 28.8764C50.0254 28.9859 50.1814 29.142 50.2854 29.34C50.3894 29.5381 50.4414 29.7664 50.4414 30.0251C50.4414 30.3 50.38 30.5423 50.2547 30.752C50.1294 30.9641 49.9497 31.1225 49.7133 31.2343L50.5856 32.9213H49.5573L48.8032 31.3881H47.6142V32.9213H46.6875ZM47.6142 30.6635H48.9025C49.0892 30.6635 49.2334 30.6076 49.3375 30.4957C49.4415 30.3839 49.4935 30.2301 49.4935 30.039C49.4935 29.9156 49.4698 29.8107 49.4249 29.7222C49.38 29.6336 49.3138 29.5684 49.2264 29.5218C49.1389 29.4775 49.0301 29.4542 48.9025 29.4542H47.6142V30.6635Z"
        fill="#FF502F" />
    <path
        d="M69.0703 32.9213V28.7109H70.8125C71.2569 28.7109 71.6352 28.7855 71.9448 28.9369C72.2569 29.0884 72.4956 29.3191 72.6635 29.6266C72.8313 29.9365 72.9164 30.3326 72.9164 30.8149C72.9164 31.2972 72.8313 31.6887 72.6635 31.9986C72.4956 32.3108 72.2545 32.5415 71.9448 32.6929C71.6328 32.8444 71.2569 32.9189 70.8125 32.9189H69.0703V32.9213ZM69.997 32.1664H70.8054C70.9922 32.1664 71.1577 32.1407 71.3042 32.0871C71.4484 32.0335 71.569 31.9543 71.6659 31.8518C71.7628 31.7493 71.8337 31.6165 71.8834 31.458C71.933 31.2996 71.959 31.1178 71.959 30.9081V30.7241C71.959 30.5144 71.933 30.3326 71.8834 30.1742C71.8337 30.0157 71.7605 29.8853 71.6659 29.7827C71.5713 29.6779 71.4508 29.5987 71.3042 29.5428C71.16 29.4868 70.9922 29.4589 70.8054 29.4589H69.997V32.1664Z"
        fill="#FF502F" />
    <path
        d="M91.5312 32.9213V28.7109H94.9424V29.4589H92.465V30.3979H94.6564V31.1411H92.465V32.1664H94.9802V32.9213H91.5312Z"
        fill="#FF502F" />
    <path
        d="M113.617 32.9213V28.7109H114.471L116.189 30.9804C116.215 31.0083 116.246 31.0479 116.284 31.0992C116.322 31.1505 116.357 31.1994 116.39 31.2506C116.423 31.2996 116.447 31.3392 116.459 31.3671H116.489V28.7109H117.366V32.9213H116.513L114.757 30.5959C114.714 30.54 114.671 30.4748 114.627 30.4049C114.582 30.335 114.549 30.2814 114.527 30.2464H114.497V32.9213H113.62H113.617Z"
        fill="#FF502F" />
</svg>