<svg width="107" height="35" viewBox="0 0 107 35" fill="none" xmlns="http://www.w3.org/2000/svg">
    <path
        d="M9.49989 13.062C9.97874 11.7832 10.666 10.6903 11.5505 9.79457C12.4406 8.89321 13.4996 8.2003 14.7446 7.70455C15.984 7.20881 17.3811 6.96094 18.9247 6.96094C20.4682 6.96094 21.871 7.20881 23.1272 7.70455C24.3835 8.2003 25.4539 8.89885 26.3383 9.79457C27.2284 10.6959 27.91 11.7832 28.3945 13.062C28.8734 14.3408 29.1156 15.766 29.1156 17.3378C29.1156 18.9095 28.8734 20.3291 28.3945 21.5967C27.91 22.8642 27.2284 23.9458 26.3383 24.8472C25.4482 25.7485 24.3779 26.4358 23.1272 26.9203C21.871 27.3991 20.4739 27.6414 18.9247 27.6414C17.3755 27.6414 15.984 27.3991 14.7446 26.9203C13.4996 26.4414 12.4406 25.7485 11.5505 24.8472C10.6604 23.9458 9.97874 22.8642 9.49989 21.5967C9.01541 20.3291 8.77881 18.9095 8.77881 17.3378C8.77881 15.766 9.02105 14.3408 9.49989 13.062ZM14.4066 19.6419C14.5587 20.3911 14.8179 21.0615 15.1841 21.6586C15.5502 22.2558 16.0403 22.729 16.6488 23.0839C17.2572 23.4388 18.0177 23.6134 18.9303 23.6134C19.8429 23.6134 20.6091 23.4388 21.2288 23.0839C21.8484 22.729 22.3442 22.2558 22.7104 21.6586C23.0765 21.0615 23.3357 20.3911 23.4878 19.6419C23.6399 18.8926 23.7131 18.1265 23.7131 17.3434C23.7131 16.5604 23.6399 15.7829 23.4878 15.0224C23.3357 14.2619 23.0765 13.5915 22.7104 13.0056C22.3442 12.4254 21.8484 11.9465 21.2288 11.5804C20.6091 11.2142 19.8429 11.0283 18.9303 11.0283C18.0177 11.0283 17.2572 11.2142 16.6488 11.5804C16.0403 11.9465 15.5502 12.4254 15.1841 13.0056C14.8179 13.5915 14.5587 14.2619 14.4066 15.0224C14.2545 15.7829 14.1757 16.5547 14.1757 17.3434C14.1757 18.1321 14.2489 18.8982 14.4066 19.6419Z"
        fill="white" />
    <path
        d="M43.8865 24.6408C43.2555 25.7055 42.4218 26.4716 41.3965 26.9392C40.3712 27.4068 39.2107 27.6434 37.915 27.6434C36.4447 27.6434 35.149 27.3561 34.0392 26.7871C32.9238 26.2181 32.0055 25.4463 31.2844 24.4661C30.5633 23.4915 30.0169 22.3705 29.6507 21.1029C29.2845 19.8354 29.0986 18.5172 29.0986 17.1483C29.0986 15.7793 29.2845 14.5569 29.6507 13.3288C30.0169 12.1007 30.5633 11.0134 31.2844 10.0783C32.0055 9.14311 32.9125 8.38822 34.0054 7.81361C35.0926 7.24463 36.3602 6.95732 37.808 6.95732C38.9741 6.95732 40.0839 7.2052 41.1373 7.70094C42.1908 8.19668 43.0189 8.9234 43.6273 9.88673H43.7062V0H49.1031V27.1476H43.971V24.6408H43.8977H43.8865ZM43.6555 14.9287C43.5034 14.1794 43.2443 13.5203 42.8781 12.9513C42.5119 12.3823 42.0331 11.9204 41.4528 11.5655C40.8669 11.2106 40.1346 11.0303 39.2445 11.0303C38.3544 11.0303 37.6108 11.2106 37.0024 11.5655C36.394 11.9204 35.9039 12.388 35.5377 12.9739C35.1715 13.5597 34.9067 14.2245 34.7377 14.9681C34.5744 15.7174 34.4899 16.4948 34.4899 17.306C34.4899 18.0665 34.58 18.827 34.7546 19.5875C34.9293 20.3481 35.2166 21.0241 35.6109 21.6212C36.0053 22.2184 36.501 22.6972 37.0925 23.0634C37.6897 23.4296 38.4051 23.6155 39.2389 23.6155C40.1233 23.6155 40.8669 23.4408 41.4641 23.0859C42.0612 22.731 42.5344 22.2578 42.8893 21.6607C43.2443 21.0635 43.4978 20.3875 43.6499 19.627C43.802 18.8665 43.8752 18.0834 43.8752 17.2666C43.8752 16.4497 43.802 15.6779 43.6499 14.9287H43.6555Z"
        fill="white" />
    <path d="M50.7764 4.45044V0H56.1732V4.45044H50.7764ZM56.1732 7.4925V27.1533H50.7764V7.4925H56.1732Z" fill="white" />
    <path
        d="M62.381 22.2614C62.6233 22.6783 62.9331 23.0219 63.3105 23.2867C63.688 23.5515 64.1274 23.7486 64.6231 23.8782C65.1189 24.0078 65.6315 24.0698 66.1611 24.0698C66.5385 24.0698 66.9385 24.0247 67.361 23.9346C67.7779 23.8444 68.1609 23.7092 68.499 23.5177C68.837 23.3261 69.1243 23.0726 69.3552 22.7572C69.5862 22.4417 69.6989 22.0417 69.6989 21.5572C69.6989 20.746 69.1581 20.1376 68.0821 19.732C67.0061 19.3264 65.5019 18.9208 63.5753 18.5152C62.7866 18.3405 62.0205 18.1265 61.2769 17.8899C60.5276 17.6476 59.8629 17.3321 59.2826 16.9378C58.6967 16.5435 58.2292 16.0533 57.8742 15.4562C57.5193 14.8591 57.3447 14.1323 57.3447 13.2704C57.3447 12.0029 57.5926 10.9663 58.0883 10.1551C58.5841 9.34389 59.2375 8.70168 60.0488 8.2341C60.86 7.76652 61.7726 7.43415 62.7866 7.24824C63.8006 7.06234 64.8372 6.96094 65.9076 6.96094C66.9779 6.96094 68.0032 7.06234 69.006 7.26514C70.0087 7.46795 70.8988 7.81159 71.6875 8.29043C72.4705 8.76928 73.124 9.41149 73.6479 10.2114C74.1662 11.0114 74.476 12.0198 74.5775 13.2366H69.4454C69.3665 12.2001 68.9778 11.4959 68.268 11.1241C67.5582 10.7579 66.7188 10.572 65.7555 10.572C65.4513 10.572 65.1245 10.5889 64.7696 10.6283C64.4147 10.6678 64.0936 10.7466 63.8006 10.8762C63.5077 11.0058 63.2598 11.186 63.057 11.4283C62.8542 11.6705 62.7528 11.9916 62.7528 12.3972C62.7528 12.8761 62.9275 13.2704 63.288 13.5746C63.6429 13.8788 64.1049 14.1267 64.6738 14.3182C65.2428 14.5098 65.8963 14.6788 66.6343 14.8309C67.3666 14.983 68.1159 15.1464 68.8764 15.3266C69.6594 15.5013 70.4312 15.721 71.1748 15.9745C71.9241 16.228 72.5888 16.566 73.1691 16.9829C73.7493 17.3997 74.2225 17.9237 74.5775 18.5433C74.9324 19.163 75.1126 19.9292 75.1126 20.8418C75.1126 22.1318 74.8535 23.2191 74.3352 24.0923C73.8169 24.9655 73.1353 25.6697 72.3015 26.2048C71.4678 26.7344 70.5101 27.1118 69.4285 27.3259C68.3525 27.54 67.254 27.647 66.1385 27.647C65.0231 27.647 63.8851 27.5343 62.7923 27.3034C61.6994 27.078 60.7304 26.6949 59.8854 26.1654C59.0347 25.6359 58.3362 24.9317 57.7954 24.0529C57.2546 23.174 56.9504 22.0811 56.8997 20.7629H62.0317C62.0317 21.3488 62.15 21.8445 62.3923 22.267L62.381 22.2614Z"
        fill="white" />
    <path
        d="M82.594 33.0061C81.5518 33.6878 80.1097 34.0314 78.2619 34.0314C77.7042 34.0314 77.1521 34.0145 76.6056 33.9751C76.0592 33.9356 75.5071 33.8906 74.9494 33.8399V29.3894C75.4564 29.4401 75.9747 29.4909 76.5099 29.5416C77.0394 29.5923 77.5746 29.6035 78.1041 29.581C78.814 29.5021 79.3379 29.2261 79.6815 28.7472C80.0252 28.2628 80.1942 27.7332 80.1942 27.153C80.1942 26.7248 80.1209 26.3192 79.9632 25.9361L73.0791 7.49219H78.8196L83.27 20.9505H83.3489L87.6472 7.49219H93.2356L85.022 29.5866C84.4362 31.1809 83.6249 32.3245 82.5884 33.0061H82.594Z"
        fill="white" />
    <path
        d="M94.5932 26.5898C95.9653 26.5898 97.0776 25.4775 97.0776 24.1055C97.0776 22.7334 95.9653 21.6211 94.5932 21.6211C93.2212 21.6211 92.1089 22.7334 92.1089 24.1055C92.1089 25.4775 93.2212 26.5898 94.5932 26.5898Z"
        fill="white" />
    <path
        d="M23.4371 33.3942C22.5189 33.3942 21.6851 33.2196 21.3358 32.6618C20.9358 32.0253 21.2401 31.1014 22.2597 29.8282C26.1806 24.9609 35.611 19.8683 40.1403 17.4233C44.8893 14.8601 49.3003 12.7194 53.717 10.8434C54.0324 10.3195 54.3366 9.78999 54.6239 9.26045C54.7028 9.10834 54.7986 8.94497 54.9 8.77033C55.4183 7.86898 56.1281 6.64089 55.5197 6.17331C54.4887 5.38462 52.9733 6.00431 51.503 6.60145C51.0016 6.80426 50.5284 7.00143 50.0665 7.14227C36.7433 11.2378 24.1413 16.5501 12.6096 22.9329C8.80137 25.0398 4.38474 27.665 0.469485 31.1352C0.351182 31.2366 0.176546 31.2309 0.0695098 31.1126C-0.0318925 30.9943 -0.0206261 30.8197 0.0920431 30.7127C4.04673 27.203 8.5028 24.5609 12.3336 22.4371C23.899 16.0375 36.5405 10.7082 49.8975 6.60145C50.3312 6.46625 50.7932 6.28035 51.2833 6.07754C52.8269 5.44659 54.5732 4.73678 55.8577 5.72263C56.8548 6.48878 56.0041 7.97038 55.3845 9.04637C55.2887 9.21538 55.1986 9.37312 55.1197 9.51959C54.9507 9.83506 54.7704 10.1505 54.5901 10.466C57.3674 9.31115 60.156 8.25769 63.046 7.26057C64.6515 6.70849 66.7697 6.02684 68.9386 5.66066C69.6653 5.53673 70.5723 5.46913 71.068 6.03247C71.406 6.42118 71.2427 7.02396 70.6061 7.73378C69.716 8.7309 68.6118 9.51958 67.6429 10.2181C61.3278 14.7587 54.1113 17.4797 47.4976 19.5809C47.2892 19.7894 47.0807 19.9978 46.8723 20.2006C56.3196 18.443 65.8289 16.4656 75.0565 14.5446C78.6957 13.7897 82.3349 13.0292 85.9742 12.2856C86.4023 12.1955 87.0051 12.0715 87.6698 11.9307C91.1926 11.1946 92.9803 10.9355 93.0329 11.1533C93.1005 11.4406 92.8639 11.5082 92.4245 11.6321C91.3541 11.9363 86.6333 12.9729 83.9179 13.5644L82.7518 13.8179C80.1999 14.37 73.4341 15.8347 72.206 16.1614C72.0088 16.2121 71.8004 16.2572 71.5919 16.3023C71.0568 16.4149 70.5554 16.5163 70.1723 16.7868C70.3244 16.8487 70.5554 16.922 70.7356 16.9389C73.9636 17.3163 82.5208 16.7868 82.611 16.7868C87.9966 16.4544 93.4779 15.8741 98.7846 15.3108L99.3086 15.2544C100.109 15.1699 100.903 15.0685 101.697 14.9671C103.303 14.7643 104.965 14.5559 106.615 14.4827C106.914 14.4827 106.981 14.6517 106.993 14.7305C107.038 15.0178 106.902 15.0573 105.866 15.3502C105.736 15.3897 105.612 15.4178 105.534 15.446C105.196 15.5474 104.908 15.6601 104.627 15.7727C103.782 16.1051 103.049 16.3924 102.137 15.7108C102.069 15.6601 102.03 15.5812 102.024 15.4967C101.939 15.508 101.855 15.5192 101.765 15.5305C100.965 15.6319 100.165 15.7333 99.3649 15.8178L98.841 15.8741C93.5343 16.4375 88.0416 17.0177 82.6448 17.3557C82.5603 17.3557 73.9523 17.8909 70.6737 17.5078C70.6624 17.5078 69.6597 17.3783 69.5132 16.9276C69.4625 16.7811 69.5132 16.6234 69.6315 16.5107C69.7949 16.3586 69.9751 16.2459 70.161 16.1502C62.2404 17.7951 54.162 19.4401 46.1287 20.9217C43.9936 22.9272 41.6219 24.8482 39.0474 26.6453C35.6561 29.0114 31.138 31.8732 26.2595 33.0111C25.606 33.1632 24.4737 33.3886 23.4427 33.3886L23.4371 33.3942ZM53.193 11.6772C49.0355 13.4686 44.8724 15.508 40.4051 17.9191C35.9039 20.3471 26.5411 25.4003 22.6935 30.1831C21.8766 31.1971 21.5612 31.9689 21.809 32.3633C22.2315 33.0336 24.2765 32.9041 26.1243 32.4703C30.9127 31.3549 35.3688 28.5325 38.7207 26.1946C41.0191 24.5891 43.1486 22.8934 45.0921 21.1245C44.6189 21.209 44.1513 21.2992 43.6781 21.3837C39.7798 22.0878 39.7572 22.009 39.684 21.6879C39.6051 21.3442 39.5995 21.3104 43.0528 20.3584C43.6049 20.2063 44.095 20.0711 44.3767 19.9866C45.3006 19.7049 46.2414 19.4176 47.1934 19.119C49.5426 16.7361 51.5593 14.2461 53.1987 11.6941L53.193 11.6772ZM46.3146 19.9697C45.7174 20.1556 45.1203 20.3358 44.5344 20.5161C44.2471 20.6006 43.7514 20.7414 43.1937 20.8935C43.312 20.871 43.4415 20.8485 43.5711 20.8259C44.3316 20.6907 45.0921 20.5499 45.8526 20.4091C46.0047 20.2626 46.1625 20.1161 46.3146 19.9697ZM54.1057 11.2941C52.5396 13.8517 50.6017 16.3473 48.3257 18.7416C54.6183 16.6966 61.3728 14.0489 67.3049 9.78436C68.2513 9.10271 69.3273 8.33093 70.1779 7.3845C70.5554 6.96199 70.7525 6.55639 70.6342 6.42682C70.3244 6.07191 69.609 6.13951 69.0231 6.23528C66.9105 6.59019 64.905 7.2324 63.2206 7.81265C60.0997 8.88301 57.097 10.0322 54.1 11.2998L54.1057 11.2941ZM102.7 15.4235C103.246 15.722 103.686 15.5474 104.412 15.2601C104.446 15.2488 104.48 15.2319 104.52 15.2206C103.911 15.2826 103.303 15.3502 102.706 15.4235H102.7Z"
        fill="white" />
</svg>