<svg width="60" height="60" viewBox="0 0 60 60" fill="none" xmlns="http://www.w3.org/2000/svg">
  <rect x="0.25" y="0.25" width="59.5" height="59.5" rx="29.75" stroke="#D9D9D9" stroke-width="0.5" />
  <path
    d="M30 15C38.2846 15 45 21.7154 45 30C45 38.2846 38.2846 45 30 45C21.7154 45 15 38.2846 15 30C15 21.7154 21.7154 15 30 15ZM35.1743 36.1141C35.4502 35.2676 36.7428 26.8311 36.9026 25.1687C36.9509 24.6652 36.7917 24.3307 36.48 24.1813C36.103 24 35.5448 24.0907 34.8972 24.3241C34.0089 24.6443 22.6533 29.4659 21.9972 29.745C21.375 30.0091 20.7867 30.2974 20.7867 30.7148C20.7867 31.0083 20.9609 31.1733 21.4409 31.3448C21.9404 31.5228 23.1985 31.9043 23.9413 32.1091C24.6567 32.3067 25.4713 32.1352 25.9278 31.8515C26.4117 31.5509 31.9963 27.8139 32.3974 27.4865C32.7978 27.1591 33.1174 27.5785 32.79 27.9065C32.4626 28.2339 28.6291 31.9546 28.1237 32.4698C27.51 33.0952 27.9457 33.7435 28.3572 34.003C28.8274 34.2991 32.2089 36.5674 32.7183 36.9313C33.2276 37.2952 33.7441 37.4602 34.217 37.4602C34.6898 37.4602 34.9389 36.8374 35.1743 36.1141Z"
    fill="#0C0C0C" />
</svg>