<svg width="76" height="73" viewBox="0 0 76 73" fill="none" xmlns="http://www.w3.org/2000/svg">
    <path
        d="M76 37.571C76 37.3304 76 37.0656 75.976 36.8249C75.8319 32.1315 74.8237 27.5585 72.9993 23.2502C71.0789 18.7013 68.3423 14.6337 64.8616 11.1437C61.3809 7.6538 57.3 4.88592 52.7871 2.9845C48.1061 0.986809 43.113 -2.98362e-06 38 -2.62978e-06C32.8629 -2.27427e-06 27.8938 1.01088 23.2129 2.9845C18.6759 4.90999 14.6191 7.65381 11.1383 11.1438C7.65762 14.6337 4.92105 18.7254 3.00065 23.2502C1.3203 27.2456 0.336102 31.4576 0.0720507 35.814L0.0480455 35.814L0.0240419 36.849C3.72807e-05 37.2582 3.76219e-05 37.6914 3.80303e-05 38.1006C3.81264e-05 38.1968 3.82225e-05 38.2931 3.83186e-05 38.3894L3.85589e-05 38.6301L4.20904e-05 42.1681L4.31475e-05 43.2272L1.05626 43.2272L3.26473 43.2272C3.91286 43.2272 4.53699 43.1309 5.11311 42.9624C6.0013 42.6977 6.79347 42.2163 7.53762 41.5183C8.13775 40.9407 8.61785 40.3149 9.00193 39.8094C9.86611 38.6782 9.98613 38.6301 10.2262 38.6301C10.4662 38.6301 10.6103 38.6782 11.4504 39.8094C11.9545 40.4833 12.5787 41.3017 13.4669 41.9997C14.5471 42.818 15.7954 43.2512 17.1636 43.2512C18.5319 43.2512 19.7802 42.8421 20.8604 41.9997C21.7486 41.3257 22.3727 40.4833 22.8768 39.8094C23.741 38.6782 23.861 38.6301 24.1011 38.6301C24.3411 38.6301 24.4852 38.6782 25.3253 39.8094C25.8295 40.4833 26.4536 41.3017 27.3418 41.9997C28.422 42.818 29.6703 43.2512 31.0385 43.2512C32.4068 43.2512 33.6551 42.8421 34.7353 41.9997C34.8793 41.8793 35.0234 41.759 35.1674 41.6386L35.1674 52.5417L35.1674 52.6861C35.1194 56.5852 33.6071 60.2436 30.8465 63.0115C28.0619 65.8035 24.3412 67.3439 20.4043 67.3439C16.4675 67.3439 12.7467 65.8035 9.96215 63.0115L9.21799 62.2654L8.47384 63.0115L5.97732 65.5147L5.23316 66.2608L5.97732 67.0069C9.84213 70.882 14.9552 73 20.4043 73C25.8535 73 30.9906 70.882 34.8314 67.0069C38.6962 63.1319 40.8086 58.0053 40.8086 52.5417L40.8086 51.4827L40.8086 34.0089L40.8086 32.9499L39.7524 32.9499L38 32.9499C37.2558 32.9499 36.5357 33.0702 35.8635 33.3109C34.0632 33.9608 33.031 35.3567 32.2628 36.3676C31.3986 37.4988 31.2786 37.547 31.0385 37.547C30.7985 37.547 30.6545 37.4988 29.8143 36.3676C29.3102 35.6937 28.686 34.8754 27.7979 34.1774C26.7176 33.359 25.4694 32.9258 24.1011 32.9258C22.7328 32.9258 21.4845 33.335 20.4043 34.1774C19.5161 34.8513 18.892 35.6937 18.3879 36.3676C17.5237 37.4988 17.4037 37.547 17.1636 37.547C16.9236 37.547 16.7796 37.4988 15.9394 36.3676C15.4353 35.6937 14.8111 34.8754 13.923 34.1774C12.8427 33.359 11.5945 32.9258 10.2262 32.9258C8.85789 32.9258 7.60963 33.335 6.5294 34.1774C6.26535 34.3699 6.0253 34.5865 5.80925 34.8032C6.12131 31.578 6.93748 28.425 8.18574 25.4164C9.81808 21.5414 12.1466 18.0755 15.1232 15.091C18.0998 12.1065 21.5565 9.77184 25.4213 8.13518C29.4062 6.45038 33.6551 5.58391 38.024 5.58391C42.3929 5.58391 46.6418 6.45038 50.6266 8.13518C54.4914 9.77184 57.9481 12.1065 60.9248 15.091C63.9014 18.0755 66.2299 21.5414 67.8622 25.4164C69.1345 28.425 69.9267 31.578 70.2387 34.8032C70.0227 34.5865 69.7827 34.3699 69.5186 34.1774C68.4384 33.359 67.1901 32.9258 65.8218 32.9258C64.4535 32.9258 63.2053 33.335 62.125 34.1774C61.2369 34.8513 60.6127 35.6937 60.1086 36.3676C59.2444 37.4988 59.1244 37.547 58.8844 37.547C58.6443 37.547 58.5003 37.4988 57.6601 36.3676C57.156 35.6937 56.5319 34.8754 55.6437 34.1774C54.5635 33.359 53.3152 32.9258 51.9469 32.9258L46.7858 32.9258L45.7296 32.9258L45.7296 33.9848L45.7296 37.5229L45.7296 38.5819L46.7858 38.5819L51.8749 38.5819C52.115 38.5819 52.259 38.6301 53.0992 39.7613C53.6033 40.4352 54.2274 41.2535 55.1156 41.9515C56.1958 42.7699 57.4441 43.2031 58.8124 43.2031C60.1806 43.2031 61.4289 42.7939 62.5091 41.9515C63.3973 41.2776 64.0214 40.4352 64.5256 39.7613C65.3897 38.6301 65.5098 38.5819 65.7498 38.5819C65.9899 38.5819 66.1339 38.6301 66.9741 39.7613C67.7902 40.8444 68.8945 42.3126 70.8629 42.9143C70.9349 42.9383 71.0069 42.9624 71.0789 42.9865C71.583 43.1309 72.1352 43.2031 72.7113 43.2031L74.9197 43.2031L75.976 43.2031L75.976 42.1441L75.976 38.606L75.976 38.0765L76 37.571Z"
        fill="#0C0C0C" />
</svg>