<svg width="60" height="60" viewBox="0 0 60 60" fill="none" xmlns="http://www.w3.org/2000/svg">
    <rect x="0.25" y="0.25" width="59.5" height="59.5" rx="29.75" stroke="#D9D9D9" stroke-width="0.5" />
    <path
        d="M30 15C21.7292 15 15.0001 21.7291 15.0001 30C15.0001 32.5826 15.6673 35.1221 16.9325 37.363L15.0242 44.1716C14.9616 44.3953 15.0223 44.6353 15.184 44.8016C15.3086 44.9301 15.4781 44.9999 15.6523 44.9999C15.7044 44.9999 15.7573 44.9934 15.8088 44.981L22.9149 43.2208C25.0846 44.3856 27.5283 44.9999 30 44.9999C38.2709 44.9999 45 38.2708 45 30C45 21.7291 38.2709 15 30 15ZM37.5457 35.293C37.2248 36.1812 35.6857 36.9919 34.9461 37.1008C34.2822 37.198 33.4422 37.2397 32.52 36.9501C31.9611 36.7741 31.2437 36.5406 30.3248 36.1486C26.462 34.5012 23.9394 30.6606 23.7464 30.4069C23.554 30.1532 22.174 28.3454 22.174 26.4743C22.174 24.6032 23.1685 23.683 23.522 23.3021C23.8755 22.9213 24.2922 22.8261 24.5492 22.8261C24.8062 22.8261 25.0625 22.8293 25.2875 22.8398C25.5242 22.8515 25.8418 22.7504 26.1542 23.4926C26.4751 24.2543 27.2453 26.1254 27.3405 26.3165C27.437 26.5069 27.5009 26.7293 27.3731 26.983C27.2453 27.2367 27.1814 27.3952 26.9883 27.6176C26.7953 27.84 26.584 28.1132 26.4105 28.2841C26.2175 28.4739 26.0172 28.6793 26.2416 29.0602C26.4659 29.441 27.2388 30.686 28.384 31.6943C29.8546 32.9895 31.0957 33.3912 31.4805 33.5817C31.8653 33.7721 32.0903 33.7402 32.3146 33.4865C32.539 33.2321 33.2772 32.3758 33.5335 31.9956C33.7898 31.6154 34.0468 31.678 34.4003 31.8052C34.7537 31.9317 36.647 32.8512 37.0318 33.0417C37.4165 33.2321 37.6735 33.3273 37.77 33.4858C37.8665 33.6436 37.8665 34.4054 37.5457 35.293Z"
        fill="#0C0C0C" />
</svg>